<?xml version="1.0" encoding="UTF-8" standalone="no"?>
<svg
   xmlns:dc="http://purl.org/dc/elements/1.1/"
   xmlns:cc="http://creativecommons.org/ns#"
   xmlns:rdf="http://www.w3.org/1999/02/22-rdf-syntax-ns#"
   xmlns:svg="http://www.w3.org/2000/svg"
   xmlns="http://www.w3.org/2000/svg"
   viewBox="0 0 512 512"
   version="1.1"
   id="svg4">
  <metadata
     id="metadata10">
    <rdf:RDF>
      <cc:Work
         rdf:about="">
        <dc:format>image/svg+xml</dc:format>
        <dc:type
           rdf:resource="http://purl.org/dc/dcmitype/StillImage" />
        <dc:title></dc:title>
      </cc:Work>
    </rdf:RDF>
  </metadata>
  <defs
     id="defs8" />
  <rect
     style="opacity:1;fill:#3465a4;fill-opacity:0.9847095;stroke:none;stroke-width:4.33042097;stroke-linecap:round;stroke-linejoin:round;stroke-miterlimit:4;stroke-dasharray:none;stroke-opacity:0.84117647"
     id="rect4813"
     width="240"
     height="240"
     x="0"
     y="-0.014294905"
     ry="32.542374" />
  <g
     id="text4751"
     style="font-style:normal;font-variant:normal;font-weight:bold;font-stretch:normal;font-size:192px;line-height:1.25;font-family:sans-serif;-inkscape-font-specification:'sans-serif, Bold';font-variant-ligatures:normal;font-variant-caps:normal;font-variant-numeric:normal;font-feature-settings:normal;text-align:start;letter-spacing:0px;word-spacing:0px;writing-mode:lr-tb;text-anchor:start;fill:#ffffff;fill-opacity:1;stroke:none"
     aria-label="H">
    <path
       id="path4756"
       style=""
       d="M 57.28125,50.001328 H 93.375 v 53.343752 h 53.25 V 50.001328 h 36.09375 V 189.97008 H 146.625 v -59.34375 h -53.25 v 59.34375 H 57.28125 Z" />
  </g>
  <rect
     style="opacity:1;fill:#4e9a06;fill-opacity:0.9847095;stroke:none;stroke-width:4.33042097;stroke-linecap:round;stroke-linejoin:round;stroke-miterlimit:4;stroke-dasharray:none;stroke-opacity:0.84117647"
     id="rect4813-6"
     width="240"
     height="240"
     x="272"
     y="0"
     ry="32.542374" />
  <g
     id="text4751-0"
     style="font-style:normal;font-variant:normal;font-weight:bold;font-stretch:normal;font-size:192px;line-height:1.25;font-family:sans-serif;-inkscape-font-specification:'sans-serif, Bold';font-variant-ligatures:normal;font-variant-caps:normal;font-variant-numeric:normal;font-feature-settings:normal;text-align:start;letter-spacing:0px;word-spacing:0px;writing-mode:lr-tb;text-anchor:start;fill:#ffffff;fill-opacity:1;stroke:none"
     aria-label="D">
    <path
       id="path4759"
       style=""
       d="m 362.23437,77.296875 v 85.406245 h 12.9375 q 22.125,0 33.75,-10.96875 11.71875,-10.96875 11.71875,-31.87499 0,-20.812505 -11.625,-31.687505 -11.625,-10.875 -33.84375,-10.875 z m -36.09375,-27.28125 h 38.0625 q 31.875,0 47.4375,4.59375 15.65625,4.5 26.8125,15.375 9.84375,9.46875 14.625,21.84375 4.78125,12.375005 4.78125,28.031255 0,15.84374 -4.78125,28.31249 -4.78125,12.375 -14.625,21.84375 -11.25,10.875 -27,15.46875 -15.75,4.5 -47.25,4.5 h -38.0625 z" />
  </g>
  <rect
     style="opacity:1;fill:#75507b;fill-opacity:0.9847095;stroke:none;stroke-width:4.33042097;stroke-linecap:round;stroke-linejoin:round;stroke-miterlimit:4;stroke-dasharray:none;stroke-opacity:0.84117647"
     id="rect4813-9"
     width="240"
     height="240"
     x="0"
     y="272"
     ry="32.542374" />
  <g
     id="text4751-3"
     style="font-style:normal;font-variant:normal;font-weight:bold;font-stretch:normal;font-size:192px;line-height:1.25;font-family:sans-serif;-inkscape-font-specification:'sans-serif, Bold';font-variant-ligatures:normal;font-variant-caps:normal;font-variant-numeric:normal;font-feature-settings:normal;text-align:start;letter-spacing:0px;word-spacing:0px;writing-mode:lr-tb;text-anchor:start;fill:#ffffff;fill-opacity:1;stroke:none"
     aria-label="F">
    <path
       id="path4762"
       style=""
       d="m 71.296875,322.01562 h 97.406245 v 27.28125 h -61.31249 v 26.0625 h 57.65624 v 27.28125 h -57.65624 v 59.34375 H 71.296875 Z" />
  </g>
  <rect
     style="opacity:1;fill:#f57900;fill-opacity:0.9847095;stroke:none;stroke-width:4.33042097;stroke-linecap:round;stroke-linejoin:round;stroke-miterlimit:4;stroke-dasharray:none;stroke-opacity:0.84117647"
     id="rect4813-3"
     width="240"
     height="240"
     x="272"
     y="272"
     ry="32.542374" />
  <g
     id="text4751-3-1"
     style="font-style:normal;font-variant:normal;font-weight:bold;font-stretch:normal;font-size:192px;line-height:1.25;font-family:sans-serif;-inkscape-font-specification:'sans-serif, Bold';font-variant-ligatures:normal;font-variant-caps:normal;font-variant-numeric:normal;font-feature-settings:normal;text-align:start;letter-spacing:0px;word-spacing:0px;writing-mode:lr-tb;text-anchor:start;fill:#ffffff;fill-opacity:1;stroke:none"
     aria-label="5">
    <path
       id="path4765"
       style=""
       d="M 344.84375,320.65625 H 434.5625 V 347.1875 H 373.625 v 21.65625 q 4.125,-1.125 8.25,-1.6875 4.21875,-0.65625 8.71875,-0.65625 25.59375,0 39.84375,12.84375 14.25,12.75 14.25,35.625 0,22.6875 -15.5625,35.53125 -15.46875,12.84375 -43.03125,12.84375 -11.90625,0 -23.625,-2.34375 -11.625,-2.25 -23.15625,-6.9375 v -28.40625 q 11.4375,6.5625 21.65625,9.84375 10.3125,3.28125 19.40625,3.28125 13.125,0 20.625,-6.375 7.59375,-6.46875 7.59375,-17.4375 0,-11.0625 -7.59375,-17.4375 -7.5,-6.375 -20.625,-6.375 -7.78125,0 -16.59375,2.0625 -8.8125,1.96875 -18.9375,6.1875 z" />
  </g>
</svg>
